<svg width="20" height="20" viewBox="0 0 20 20" fill="none" xmlns="http://www.w3.org/2000/svg">
<path d="M9.16797 1.66675C13.308 1.66675 16.668 5.02675 16.668 9.16675C16.668 13.3067 13.308 16.6667 9.16797 16.6667C5.02797 16.6667 1.66797 13.3067 1.66797 9.16675C1.66797 5.02675 5.02797 1.66675 9.16797 1.66675ZM9.16797 15.0001C12.3909 15.0001 15.0013 12.3897 15.0013 9.16675C15.0013 5.94383 12.3909 3.33341 9.16797 3.33341C5.94505 3.33341 3.33464 5.94383 3.33464 9.16675C3.33464 12.3897 5.94505 15.0001 9.16797 15.0001ZM16.2391 15.0593L18.5961 17.4163L17.4176 18.5948L15.0606 16.2378L16.2391 15.0593Z" fill="#6F2E8B"/>
</svg>
