<svg width="48" height="48" viewBox="0 0 48 48" fill="none" xmlns="http://www.w3.org/2000/svg">
<rect x="0.5" y="0.5" width="47" height="47" rx="13.5" fill="white" stroke="#253E91"/>
<path d="M25.1202 28.0228L20.9213 25.7324C20.1914 26.5125 19.1526 27 18 27C15.7909 27 14 25.2091 14 23C14 20.7909 15.7909 19 18 19C19.1525 19 20.1912 19.4875 20.9212 20.2675L25.1202 17.9771C25.0417 17.6644 25 17.3371 25 17C25 14.7909 26.7909 13 29 13C31.2091 13 33 14.7909 33 17C33 19.2091 31.2091 21 29 21C27.8474 21 26.8087 20.5125 26.0787 19.7325L21.8798 22.0228C21.9583 22.3355 22 22.6629 22 23C22 23.3371 21.9583 23.6644 21.8798 23.9771L26.0788 26.2675C26.8087 25.4875 27.8474 25 29 25C31.2091 25 33 26.7909 33 29C33 31.2091 31.2091 33 29 33C26.7909 33 25 31.2091 25 29C25 28.6629 25.0417 28.3355 25.1202 28.0228ZM18 25C19.1046 25 20 24.1046 20 23C20 21.8954 19.1046 21 18 21C16.8954 21 16 21.8954 16 23C16 24.1046 16.8954 25 18 25ZM29 19C30.1046 19 31 18.1046 31 17C31 15.8954 30.1046 15 29 15C27.8954 15 27 15.8954 27 17C27 18.1046 27.8954 19 29 19ZM29 31C30.1046 31 31 30.1046 31 29C31 27.8954 30.1046 27 29 27C27.8954 27 27 27.8954 27 29C27 30.1046 27.8954 31 29 31Z" fill="#253E91"/>
</svg>
