<svg width="23" height="23" viewBox="0 0 23 23" fill="none" xmlns="http://www.w3.org/2000/svg">
<path d="M21.7272 0.284119H1.27268C0.803919 0.284119 0.42041 0.667628 0.42041 1.13639V4.54548C0.42041 5.01425 0.803919 5.39776 1.27268 5.39776C1.74145 5.39776 2.12496 5.01425 2.12496 4.54548V1.98866H20.875V4.54548C20.875 5.01425 21.2585 5.39776 21.7272 5.39776C22.196 5.39776 22.5795 5.01425 22.5795 4.54548V1.13639C22.5795 0.667628 22.196 0.284119 21.7272 0.284119Z" fill="#6F338D"/>
<path d="M12.1051 3.67605C11.9517 3.52264 11.7557 3.44594 11.5597 3.42889C11.5 3.42889 11.4489 3.42889 11.3977 3.43742C11.2358 3.45446 11.0739 3.52264 10.946 3.64196C10.929 3.65901 10.9119 3.67605 10.8949 3.68458L6.07962 8.49985C5.74722 8.83225 5.74722 9.36917 6.07962 9.70154C6.41202 10.0339 6.94894 10.0339 7.28131 9.70154L10.6479 6.33499V21.5908C10.6479 22.0596 11.0314 22.4431 11.5001 22.4431C11.9689 22.4431 12.3524 22.0596 12.3524 21.5908V6.33499L15.719 9.70154C16.0513 10.0339 16.5883 10.0339 16.9206 9.70154C17.0911 9.53108 17.1678 9.31803 17.1678 9.09641C17.1678 8.87479 17.0826 8.66174 16.9206 8.49128L12.1051 3.67605Z" fill="#6F338D"/>
</svg>
